/* XPM */
static char *_dc564c16b3a4c6097e5e577cc74f1121BWNyePIRwUph7oB[] = {
/* columns rows colors chars-per-pixel */
"16 16 10 1 ",
"  c None",
". c #EEF8FE",
"X c #C0CBDC",
"o c #46C4E4",
"O c #D9F7FF",
"+ c #84C669",
"@ c #AAE393",
"# c #8B9BB4",
"$ c #439545",
"% c #3F2631",
/* pixels */
"       %%%      ",
"      %%%%%%%   ",
"     %%%X%%%%%  ",
" %%%%%%+X++$%%  ",
"%%%%%%%$X++.%%% ",
"%%@@@@@++++.+%%%",
"%%#####@@@@.++%%",
"%%#####$$$$.++%%",
"%%#####$$XX$+@%%",
"%%#####$$$$@@$%%",
"%%@@@@@@@@@$$%%%",
"%%$$$$$$$$$$%%%O",
"%%$$$$$$$$%%%%O ",
" OOOOOOOOOOOOO  ",
"  oooooooooo    ",
"                "
};
