/* XPM */
static char *d1e1ae0892f64a7eaba4958f5b1deae6kHgpIWMGBkRPk9nQ[] = {
/* columns rows colors chars-per-pixel */
"32 32 101 2 ",
"   c black",
".  c #3F2631",
"X  c #3F2631",
"o  c #3F2631",
"O  c #3F2631",
"+  c #3F2631",
"@  c #3F2631",
"#  c #3F2631",
"$  c #3F2631",
"%  c #3F2631",
"&  c #3F2631",
"*  c #3F2631",
"=  c #3F2631",
"-  c #3F2631",
";  c #3F2631",
":  c #3F2631",
">  c #3F2631",
",  c #3F2631",
"<  c #3F2631",
"1  c #3F2631",
"2  c #3F2631",
"3  c #3F2631",
"4  c #3F2631",
"5  c None",
"6  c #3F2631",
"7  c #3F2631",
"8  c #3F2631",
"9  c #3F2631",
"0  c #3E2530",
"q  c #3D242F",
"w  c #3C222D",
"e  c #4A333E",
"r  c #604E58",
"t  c #604D57",
"y  c #48313C",
"u  c #3C232E",
"i  c #614F59",
"p  c #A7A3AB",
"a  c #A6A2AA",
"s  c #5F4C56",
"d  c #391E29",
"f  c #391F2A",
"g  c #3B212C",
"h  c #6C5C66",
"j  c #CACDD4",
"k  c #D2D8DF",
"l  c #847B86",
"z  c #5D4C58",
"x  c #64535E",
"c  c #695963",
"v  c #695962",
"b  c #6A5963",
"n  c #6A5A64",
"m  c #5F4C57",
"M  c #49323D",
"N  c #6B5B64",
"B  c #C8CAD1",
"V  c #E1EAF3",
"C  c #B6BBC8",
"Z  c #A7A9B7",
"A  c #BABCC5",
"S  c #C5C6CD",
"D  c #C4C6CD",
"F  c #C4C5CD",
"G  c #C6C8CF",
"H  c #C7C9D0",
"J  c #A49FA7",
"K  c #E7F2FB",
"L  c #CFDBE9",
"P  c #CDD9E8",
"I  c #E6F1FA",
"U  c #F3FEFF",
"Y  c #F2FDFF",
"T  c #F5FFFF",
"R  c #F6FFFF",
"E  c #CEDAE8",
"W  c #CCD7E6",
"Q  c #E5EFF8",
"!  c #F2FCFF",
"~  c #F1FCFF",
"^  c #F1FBFF",
"/  c #CDD8E6",
"(  c #CAD5E3",
")  c #E2ECF5",
"_  c #EFF9FF",
"`  c #EEF8FE",
"'  c #C6C7CE",
"]  c #DFE8F0",
"[  c #B5BAC7",
"{  c #6B5B65",
"}  c #CFD4DB",
"|  c #837A85",
" . c #64545E",
".. c #6A5962",
"X. c #381D28",
"o. c #C7CAD1",
"O. c #3A202B",
"+. c #6C5D66",
"@. c #6D5D67",
"#. c #CBCED5",
"$. c white",
/* pixels */
"                                                                ",
"      . . . . . . . . . . . . . . . .                           ",
"      . . . . . . . . . . . . . . . .                           ",
"      . . X o O + + + + + O O @ # . . . . . . . . . .           ",
"      . . o $ % & * * * * & % = - . . . . . . . . . .           ",
"      . . O % 9 9 0 q q 0 9 9 ; : > , + + O O @ # . . . .       ",
"      . . + & 9 9 0 w w 0 9 9 < 1 2 2 * * & % = - . . . .       ",
"      . . + * 0 0 e r t y w w u u u u u u q 0 3 4 - # . .       ",
"      . . + * q w i p a s d f g g g g g g w 0 5 3 = @ . .       ",
"      . . + * u g h j k l z x c c v v b n m M 0 0 % O . .       ",
"      . . + * u g N B V C Z A S D F F G H J m w q & O . .       ",
"      . . + * u g b S K L P I U U Y Y T R H n g u * + . .       ",
"      . . + * u g b S K E W Q ! ~ ^ ^ U T G b g u * + . .       ",
"      . . + * u g b S I / ( ) _ _ ` ` ^ Y F v g u * + . .       ",
"      . . + * u g b S I / ( ) _ _ ` ` ^ Y F v g u * + . .       ",
"      . . + * u g b S K E W Q ! ~ ^ ^ U T G b g u * + . .       ",
"      . . + * u g b S K L P I U U Y Y T R H n g u * + . .       ",
"      . . + * u g n ' ] [ Z A S D F F G H J m w q & O . .       ",
"      . . + * u g { H } | z  .c c v v b n m M 0 0 % O . .       ",
"      . . + * u g h B H ..X.d g g g g g g w 0 5 3 = @ . .       ",
"      . . + * u g h B o.n d O.u u u u u u q 0 3 4 - # . .       ",
"      . . + * u g +.j j +.g u 6 7 2 * * * & % = - . . . .       ",
"      . . + * u g @.#.#.@.g u 7 8 > , + + O O @ # . . . .       ",
"      . . + * q w i p p i w q 2 > . . . . . . . . . .           ",
"      . . + * 0 0 e r r e 0 0 * , . . . . . . . . . .           ",
"      . . + & 9 9 0 w w 0 9 9 & + . .                           ",
"      . . O % 9 9 0 q q 0 9 9 % O . .                           ",
"      . . o $ % & * * * * & % $ o . .                           ",
"      . . X o O + + + + + + O o X . .                           ",
"      . . . . . . . . . . . . . . . .                           ",
"      . . . . . . . . . . . . . . . .                           ",
"                                                                "
};
