/* XPM */
static char *_1caa38b31b34b4fd86d4fe35afbfa6dkWLoylMqJ2hqYykq[] = {
/* columns rows colors chars-per-pixel */
"32 32 221 2 ",
"   c None",
".  c #391E28",
"X  c #3A1F2A",
"o  c #3B202A",
"O  c #3B202B",
"+  c #3B212B",
"@  c #3B212C",
"#  c #3C222C",
"$  c #3C222D",
"%  c #3C232D",
"&  c #3C232E",
"*  c #3D232E",
"=  c #3D242F",
"-  c #3E242F",
";  c #3E2530",
":  c #3F2530",
">  c #3F2631",
",  c #422B37",
"<  c #432C37",
"1  c #432C38",
"2  c #462F3A",
"3  c #47303C",
"4  c #473746",
"5  c #4A3845",
"6  c #4B3946",
"7  c #4C3947",
"8  c #483948",
"9  c #4B3B4A",
"0  c #4C3A48",
"q  c #4C3B48",
"w  c #4D3B49",
"e  c #4E3E4D",
"r  c #56434F",
"t  c #504150",
"y  c #514250",
"u  c #514251",
"i  c #514351",
"p  c #524351",
"a  c #534452",
"s  c #574450",
"d  c #544452",
"f  c #544553",
"g  c #554654",
"h  c #584551",
"j  c #584652",
"k  c #584653",
"l  c #5A4956",
"z  c #5B4B58",
"x  c #5C4C59",
"c  c #5C4D59",
"v  c #5E4D59",
"b  c #5F4E5A",
"n  c #5F5869",
"m  c #605868",
"M  c #645C6D",
"N  c #6A5D69",
"B  c #6B6373",
"V  c #6C6474",
"C  c #69677B",
"Z  c #69687B",
"A  c #6A697C",
"S  c #766D7B",
"D  c #636880",
"F  c #636981",
"G  c #646C85",
"H  c #60708E",
"J  c #61718F",
"K  c #62728F",
"L  c #71778D",
"P  c #72788E",
"I  c #637390",
"U  c #637391",
"Y  c #647391",
"T  c #647491",
"R  c #647492",
"E  c #647592",
"W  c #657592",
"Q  c #667794",
"!  c #687895",
"~  c #6C7C98",
"^  c #6C7C99",
"/  c #6E7E9A",
"(  c #6E7E9B",
")  c #6F7F9B",
"_  c #777D93",
"`  c #787E94",
"'  c #798096",
"]  c #7A8096",
"[  c #7A8197",
"{  c #75819B",
"}  c #70819D",
"|  c #71829E",
" . c #73839E",
".. c #7C859C",
"X. c #7E879E",
"o. c #7A89A3",
"O. c #7989A4",
"+. c #7A8AA5",
"@. c #7C8BA5",
"#. c #7D8CA6",
"$. c #7E8CA6",
"%. c #7E8EA8",
"&. c #41C2E3",
"*. c #6AD2EC",
"=. c #8C8896",
"-. c #8C8897",
";. c #8D8997",
":. c #81869B",
">. c #83899D",
",. c #83899E",
"<. c #848A9E",
"1. c #818AA1",
"2. c #838CA2",
"3. c #8992A7",
"4. c #8091AB",
"5. c #8191AB",
"6. c #8093AB",
"7. c #8192AC",
"8. c #8292AC",
"9. c #8293AD",
"0. c #8395AD",
"q. c #8394AE",
"w. c #8795AD",
"e. c #8496AD",
"r. c #8495AF",
"t. c #8597AE",
"y. c #9398AB",
"u. c #979AAB",
"i. c #999CAD",
"p. c #999DAE",
"a. c #8A9AB3",
"s. c #8C9AB3",
"d. c #8B9BB4",
"f. c #8C9BB4",
"g. c #8B9CB6",
"h. c #8C9CB5",
"j. c #8C9DB6",
"k. c #8C9DB7",
"l. c #8D9DB7",
"z. c #8E9DB6",
"x. c #8D9EB7",
"c. c #8E9EB6",
"v. c #8F9EB6",
"b. c #8D9FB8",
"n. c #8E9FB8",
"m. c #8EA0B9",
"M. c #8FA0B9",
"N. c #92A0B7",
"B. c #9CA0B1",
"V. c #90A0B9",
"C. c #91A2BB",
"Z. c #93A3BB",
"A. c #94A2B9",
"S. c #94A3BB",
"D. c #95A4BB",
"F. c #92A3BC",
"G. c #95A5BD",
"H. c #96A5BC",
"J. c #96A5BD",
"K. c #97A6BD",
"L. c #96A6BE",
"P. c #97A6BE",
"I. c #96ABBF",
"U. c #98A8BF",
"Y. c #99A8BF",
"T. c #9AA9BF",
"R. c #9DA9BF",
"E. c #A3A5B4",
"W. c #A4A6B5",
"Q. c #A0A7B9",
"!. c #A2A7B8",
"~. c #A1A8BA",
"^. c #A4AABC",
"/. c #97A8C0",
"(. c #99A9C1",
"). c #9AA9C0",
"_. c #9BA9C0",
"`. c #9BAAC0",
"'. c #99AAC2",
"]. c #9EADC4",
"[. c #A1AEC4",
"{. c #A1B1C7",
"}. c #A3B3CA",
"|. c #A4B2C8",
" X c #A5B3C9",
".X c #A9B4C8",
"XX c #A8B5CA",
"oX c #A8B6CA",
"OX c #A9B6CA",
"+X c #A9B6CB",
"@X c #ABB8CC",
"#X c #ABB9CE",
"$X c #ACB8CC",
"%X c #ADB9CC",
"&X c #ADB9CD",
"*X c #ACBACE",
"=X c #ADBACE",
"-X c #ACBACF",
";X c #B0B8C5",
":X c #ACBBD0",
">X c #AEBBD0",
",X c #B1BFD3",
"<X c #B1BFD4",
"1X c #B4C0D3",
"2X c #B5C1D3",
"3X c #B2C3D5",
"4X c #B6C2D5",
"5X c #B7C3D5",
"6X c #BAC6D9",
"7X c #BBC7D9",
"8X c #BBC8DA",
"9X c #BCC8DB",
"0X c #BAD2E0",
"qX c #B6EDFB",
"wX c #B7EDFB",
"eX c #C3CFE0",
"rX c #C1D9E6",
"tX c #C1DCE8",
"yX c #C3DCE8",
"uX c #CDE3EC",
"iX c #DFFFFF",
/* pixels */
"                        > > > > > >                             ",
"                        > > - - > >                             ",
"                    > > > > * * > > > > > >                     ",
"                    > > - 2 h h 2 * * > > >                     ",
"                > > > * @ s -.-.r . @ - > > > >                 ",
"                > > > , 5 B Q.^.S l a q 1 > > >                 ",
"        > > > > > > - q C 1.N.R.Q.p.,.Z q - > >                 ",
"        > > - - > - * g <./.x.S.#X<X}.,.s * - >                 ",
"    > > > > * * > - * v p.:XG.d.V.{.,Xp.v * - > > > > >         ",
"    > > > 3 h h 2 @ O v W.9X XG.G. X8XW.v O * - - > > >         ",
"    > - * h -.-.s . . v E.eX7X2X2X7XeXE.v O @ * * - > > > >     ",
"    > * @ v B.~.V 9 4 m y.$X$X$X$X$X$Xy.m 9 e p p q , - > >     ",
"> > > * O s <.S.2.L D G { #.#.#.#.#.#.{ G D P [ [ Z 5 * - > > > ",
"> > > < 7 n X.x.n.r.} Q W W W W W W W W Q } r.F.).3.M 5 , > > > ",
"> > - q A X.r.x.x.q.} Q W W W W W W W W Q } 7.T.:XXX3.Z q - > > ",
"> - * p [ m.x.d.d.7.) ! ) ) ) ) ) ) ) ) ! ) 6.G.#X$X).[ p * - > ",
"> - * p [ n.g.a.d.6.) ) O.7.7.6.6.7.7.O.) ) 6.x.D.G.V.[ p * - > ",
"> - * p ` V.G.T.).x.O.O.x.).).T.T.).).x.O.O.x.T.T.G.m.` p * - > ",
"> - * p _ G.$X5X5XXXx.x.XX5X5X5X5X5X5XXXx.x.XX5X5X#XG._ p * - > ",
"> - * s :.].XX$X$X[.f.f.[.$X$X$X$X$X$X[.f.f.[.$X$XXX].:.s * - > ",
"> - * z u.XXs.@.#.o.} } o.#.#.#.#.#.#.o.} } o.#.@.s.XXu.z * - > ",
"> * O N ;X3X%.J J Y W W Y I I I I I I Y W W Y J J %.3X;XN O * > ",
"        uX0X6.J J I Y Y I I I I I I I I Y Y I J J 6.0XuX        ",
"        iXtXI.q.r.r.r.r.r.r.r.r.r.r.r.r.r.r.r.r.q.I.tXiX        ",
"            tXrXrXrXrXrXrXrXrXrXrXrXrXrXrXrXrXrXrXtX            ",
"            qXqXqXqXqXqXqXqXqXqXqXqXqXqXqXqXqXqXqXqX            ",
"            *.*.*.*.*.*.*.*.*.*.*.*.*.*.*.*.*.*.*.*.            ",
"            &.&.&.&.&.&.&.&.&.&.&.&.&.&.&.&.&.&.&.&.            ",
"                                                                ",
"                                                                ",
"                                                                ",
"                                                                "
};
