/* XPM */
static char *f2cd7a6d3d604e6baa3fd5ba9461c4adCt5W9clXcBojXnVZ[] = {
/* columns rows colors chars-per-pixel */
"32 32 29 1 ",
"  c #75E3FF",
". c #74E3FF",
"X c #73E3FF",
"o c #77E3FF",
"O c #7DE4FF",
"+ c #84E6FF",
"@ c #8CE8FF",
"# c #88E7FF",
"$ c #7BE4FF",
"% c #8FE8FF",
"& c #7CE4FF",
"* c #8DE8FF",
"= c #A3ECFF",
"- c #BBF1FF",
"; c #B0EFFF",
": c #87E7FF",
"> c #86E6FF",
", c #AFEFFF",
"< c #C5F3FF",
"1 c #C4F3FF",
"2 c #8CE7FF",
"3 c #8BE7FF",
"4 c #83E6FF",
"5 c #8DE7FF",
"6 c #A2ECFF",
"7 c #BAF1FF",
"8 c #B9F0FF",
"9 c #A0EBFF",
"0 c white",
/* pixels */
"                                ",
"                                ",
"                                ",
"           ...  .X..X.  ...     ",
"          ..XX..XXXXXX..XX..    ",
"         oO+@#$$#%%%%#$$#@+Oo   ",
"        .&*=-;:>,<11<,>:;-=*&.  ",
"        .&*=-;:>,<11<,>:;-=*&.  ",
"         oO+@#$$#%%%%#$$#@+Oo   ",
"          ..XX..XXXXXX..XX..    ",
"           ...  .X..X.  ...     ",
"                                ",
"                                ",
"                                ",
"                                ",
"                                ",
"                                ",
"   ........                     ",
"  ..XX..XX..                    ",
" oO+234432+Oo                   ",
".&567899876*&.                  ",
".&567899876*&.                  ",
" oO+234432+Oo                   ",
"  ..XX..XX..       ........     ",
"   ........       ..XX..XX..    ",
"                 oO+234432+Oo   ",
"                .&*67899876*&.  ",
"                .&*67899876*&.  ",
"                 oO+234432+Oo   ",
"                  ..XX..XX..    ",
"                   ........     ",
"                                "
};
