/* XPM */
static char *f2ce0849c59b4efb8dd9b2a73d9807cdh0WrdKNAe18qSxRo[] = {
/* columns rows colors chars-per-pixel */
"36 36 256 2 ",
"   c None",
".  c #363738",
"X  c #3C3C3C",
"o  c gray24",
"O  c #46443A",
"+  c #49473D",
"@  c #48473E",
"#  c #4A493F",
"$  c #4B4A3F",
"%  c #54503F",
"&  c #343841",
"*  c #343842",
"=  c #353942",
"-  c #343943",
";  c #343944",
":  c #343C46",
">  c #343C47",
",  c #343D47",
"<  c #383B44",
"1  c #393D46",
"2  c #343D48",
"3  c #343D49",
"4  c #353D49",
"5  c #353E48",
"6  c #343E49",
"7  c #373E48",
"8  c #353E4A",
"9  c #37404B",
"0  c #37434B",
"q  c #37434C",
"w  c #3B404A",
"e  c #38444C",
"r  c #39444C",
"t  c #38444D",
"y  c #38454E",
"u  c #3B464E",
"i  c #374254",
"p  c #374456",
"a  c #374557",
"s  c #374459",
"d  c #37485D",
"f  c #3F4D5D",
"g  c #394965",
"h  c #3C5160",
"j  c #3C5161",
"k  c #3D5363",
"l  c #3D5463",
"z  c #3E5565",
"x  c #3F576E",
"c  c #424241",
"v  c #434342",
"b  c #444443",
"n  c #414544",
"m  c #474847",
"M  c #4B4A42",
"N  c #4B4B4A",
"B  c #545141",
"V  c #565241",
"C  c #5A5746",
"Z  c #51514F",
"A  c #5D5B49",
"S  c #5D5C53",
"D  c #5E5E56",
"F  c #485062",
"G  c #4F5C6C",
"H  c #565961",
"J  c #5A5F60",
"K  c #5E666F",
"L  c #4F6071",
"P  c #4F6370",
"I  c #506371",
"U  c #52637A",
"Y  c #5B6979",
"T  c #5C6A7B",
"R  c #5C6B7C",
"E  c #5E6E7D",
"W  c #62676D",
"Q  c #7A7A69",
"!  c #686E75",
"~  c #686F75",
"^  c #7C7C7B",
"/  c #7F7F7D",
"(  c #9F9C7B",
")  c #B0A364",
"_  c #B3A76C",
"`  c #B4A96E",
"'  c #BDAF6F",
"]  c #AAA473",
"[  c #BCB177",
"{  c #BEB277",
"}  c #BAB17B",
"|  c #455C92",
" . c #445E9B",
".. c #506782",
"X. c #536F83",
"o. c #536E8B",
"O. c #49629A",
"+. c #607380",
"@. c #687C85",
"#. c #6A7C87",
"$. c #4466A4",
"%. c #4466A5",
"&. c #4566A5",
"*. c #4467A7",
"=. c #4967A7",
"-. c #4A6BA6",
";. c #4270A8",
":. c #4970AB",
">. c #5477AD",
",. c #5777AC",
"<. c #5874AA",
"1. c #4775B4",
"2. c #4A79B1",
"3. c #4974B9",
"4. c #457ABB",
"5. c #4A7BB9",
"6. c #4B7EBC",
"7. c #487DBE",
"8. c #4C7DBC",
"9. c #5875B1",
"0. c #477BC1",
"q. c #477FC7",
"w. c #497DC1",
"e. c #4E7FCC",
"r. c #518EBC",
"t. c #5392BE",
"y. c #6580AF",
"u. c #6782AE",
"i. c #4781C7",
"p. c #4A84C0",
"a. c #4D86C2",
"s. c #4881C7",
"d. c #4B80C7",
"f. c #4E85C5",
"g. c #4A86CD",
"h. c #4884CE",
"j. c #4C89CD",
"k. c #5D89C7",
"l. c #5286CF",
"z. c #4987D5",
"x. c #4A88D2",
"c. c #4A88D3",
"v. c #5287D1",
"b. c #548DD5",
"n. c #508FDD",
"m. c #5091D6",
"M. c #5892D2",
"N. c #569BD0",
"B. c #5D9FD3",
"V. c #5392D9",
"C. c #669CD2",
"Z. c #59A0D2",
"A. c #59A0D3",
"S. c #59A1D3",
"D. c #59A1D4",
"F. c #59A1D5",
"G. c #5BA2D5",
"H. c #5CA1D5",
"J. c #5DA1DB",
"K. c #5EA4D9",
"L. c #59A1DD",
"P. c #5AA4DF",
"I. c #67A1D7",
"U. c #68A3D8",
"Y. c #60A9DD",
"T. c #62ACDF",
"R. c #4F95E1",
"E. c #5BA7E5",
"W. c #5BA9E3",
"Q. c #5EA8E3",
"!. c #5CABE2",
"~. c #5FAAE7",
"^. c #5AA5EA",
"/. c #5FAEE8",
"(. c #5EAFE9",
"). c #5CADF1",
"_. c #5EACF0",
"`. c #60A0E5",
"'. c #65AEE3",
"]. c #62B3EC",
"[. c #62B4EE",
"{. c #77BEEB",
"}. c #60B3F4",
"|. c #60B5F6",
" X c #60B5F7",
".X c #6AB2F3",
"XX c #69BCF4",
"oX c #6ABDF5",
"OX c #61B6F8",
"+X c #60B7F9",
"@X c #61B7F9",
"#X c #62BAFA",
"$X c #63BCFC",
"%X c #63BDFC",
"&X c #62BCFD",
"*X c #64BEFD",
"=X c #78C2ED",
"-X c #8F8F8C",
";X c #91918F",
":X c #959593",
">X c #969693",
",X c #979794",
"<X c #989792",
"1X c #999994",
"2X c #9B9B95",
"3X c #9A9A96",
"4X c #9B9B98",
"5X c #9B9C98",
"6X c #9C9C99",
"7X c #A2A38A",
"8X c #B4B48A",
"9X c #BFBE8A",
"0X c #A1A19A",
"qX c #A1A19B",
"wX c #A0A09C",
"eX c #A0A19C",
"rX c #8CA3A2",
"tX c #8AAFB5",
"yX c #9EBFBF",
"uX c #A6A6A0",
"iX c #A7A6A0",
"pX c #A8A8A2",
"aX c #A9A9A2",
"sX c #AAA9A2",
"dX c #ACACA5",
"fX c #B0B0AA",
"gX c #B2B2AC",
"hX c #B3B3AC",
"jX c #B3B3AD",
"kX c #B6B6AF",
"lX c #B7B7AF",
"zX c #B7B7B0",
"xX c #B8B8B0",
"cX c #B8B8B1",
"vX c #B9B9B2",
"bX c #BCBCB4",
"nX c #BEC296",
"mX c #C9C288",
"MX c #D4CC89",
"NX c #D5CD8B",
"BX c #D7CE8B",
"VX c #DAD38F",
"CX c #C8C792",
"ZX c #C1C89C",
"AX c #DBDA9F",
"SX c #E7DE93",
"DX c #EAE197",
"FX c #EEE69C",
"GX c #EFE79C",
"HX c #F0E79C",
"JX c #F1E89D",
"KX c #D8DEA9",
"LX c #E7E3A0",
"PX c #A0C2C0",
"IX c #A3C5C1",
"UX c #B4CDE3",
/* pixels */
"                                                                        ",
"                                                                        ",
"                                                                        ",
"                                                                        ",
"                                                                        ",
"                                                                        ",
"                                                                        ",
"                                        e e       ; ;                   ",
"                                      j A.G.j * < |  .*                 ",
"                                    e A.$X XP.-.G U O.i q               ",
"                                    q W. Xv.).l.Q.B.o.a.r.e             ",
"                                    5 p.^.e.).OX Xb.~.L.j               ",
"                                      p 3.n.`.(.#XOX}.:.*               ",
"                          b b b       > s..XUXI G.*X(.x                 ",
"                      X Z 0XdX2XZ v   9 w.k.U.f X.[.$XA.e               ",
"                    X ^ pXzXcX4XpX2Xm F <.7Xu.,.J.OX$XA.e               ",
"                    N pXcX6XlXcXjX-XH =.9.} [ ( ,.j.N.l                 ",
"                  X / fXlXzXbXjX2X5XY s.u.[ ) V * 5 q                   ",
"                  v <X>X,XjXfX>XuX~ f.M.8X' V                           ",
"                  . W wXuX>X;X;X0X+.E.I.AXBX+                           ",
"                > p 2.R ~ wXpX0X#.Y.XXPXLXVXC                           ",
"              d 4.g.z.6.8.T K E K.$X=XKXFXDX` +                         ",
"            > ;.i.q.*.g *.5.6.g.R.'.IXLXHXHXBXD 5 ;                     ",
"              5 5 5 *   w P ..x.x.#.CXFXJXSX` J 1.*.s                   ",
"                      e P H.m.V.C.rXQ mXBX_ % 1 *.0.;.>                 ",
"                    z G.].XX{.yXnX] S M # O     ; 5 5                   ",
"                  9 t.Q.T.tXZX9XA O                                     ",
"                    e e e n # #                                         ",
"                                                                        ",
"                                                                        ",
"                                                                        ",
"                                                                        ",
"                                                                        ",
"                                                                        ",
"                                                                        ",
"                                                                        "
};
