/* XPM */
static char *_81938572be046b4fbbd0cbaba315cf51Mca9IRQ9l3Tsnq3[] = {
/* columns rows colors chars-per-pixel */
"32 32 94 2 ",
"   c #84C669",
".  c #83C669",
"X  c #81C66A",
"o  c #80C66A",
"O  c #85C769",
"+  c #82C76A",
"@  c #8AC668",
"#  c #99C565",
"$  c #A2C464",
"%  c #82C468",
"&  c #7EC065",
"*  c #83C468",
"=  c #82C66A",
"-  c #80C76B",
";  c #98C666",
":  c #C8C25D",
">  c #E2C058",
",  c #7EBF65",
"<  c #71B25E",
"1  c #72B35E",
"2  c #7FC166",
"3  c #72B25E",
"4  c #87C265",
"5  c #92BA5D",
"6  c #B4B756",
"7  c #E8BB52",
"8  c #FFBD50",
"9  c #71B25D",
"0  c #6FB05C",
"q  c #78B962",
"w  c #B89F42",
"e  c #DA9D3B",
"r  c #F3B248",
"t  c #FFBE50",
"y  c #7EC066",
"u  c #78B961",
"i  c #F29F42",
"p  c #FABF6A",
"a  c #FED07F",
"s  c #85C76A",
"d  c #FDE0B3",
"f  c #FFF2DB",
"g  c #C9C25D",
"h  c #9AC565",
"j  c #82C669",
"k  c white",
"l  c #E4C058",
"z  c #E3C058",
"x  c #A3C464",
"c  c #97C364",
"v  c #C2BB59",
"b  c #E2B44E",
"n  c #F1B047",
"m  c #C3BB59",
"M  c #98C364",
"N  c #84C76A",
"B  c #84C065",
"V  c #85B25B",
"C  c #A1A34B",
"Z  c #D39637",
"A  c #F2A042",
"S  c #FBBF6A",
"D  c #84C769",
"F  c #7CC066",
"G  c #6DB35F",
"H  c #7FA551",
"J  c #B2993F",
"K  c #DA9D3C",
"L  c #F4B349",
"P  c #81C468",
"I  c #80BB62",
"U  c #90B75C",
"Y  c #E8BC52",
"T  c #83C76A",
"R  c #80C86B",
"E  c #96C465",
"W  c #DBB753",
"Q  c #83C86A",
"!  c #87B15A",
"~  c #89A954",
"^  c #7DC066",
"/  c #6FB35E",
"(  c #68AB5A",
")  c #7ABD64",
"_  c #A2C463",
"`  c #81C86B",
"'  c #C2BC59",
"]  c #DAB753",
"[  c #87B25A",
"{  c #89AA55",
"}  c #85C669",
"|  c #7BBE64",
" . c #69AC5B",
".. c #5FA355",
/* pixels */
"          . X o o X .                           O O     O O     ",
"      . + @ # $ $ # @ + .                     % & & * * & & %   ",
"      = - ; : > > : ; - =                   O , < 1 2 2 1 3 & O ",
"  . = 4 5 6 7 8 8 7 6 5 4 = .               O & 9 0 q q 0 < & O ",
"  + - 5 w e r t t r e w 5 - +                 % y u 0 0 u y %   ",
". @ ; 6 e i p a a p i e 6 ; @ .               O s y 9 9 y s O   ",
"X # : 7 r p d f f d p r 7 g h j .               O % & & % O     ",
"o $ > t t a f k k f a t t l $ X j                   O O         ",
"o $ z t t a f k k f a t t l x X j                               ",
"X c v b n p d f f d p n b m M = .                               ",
"N B V C Z A S a a S A Z C V B D                                 ",
"O F G H J K L t t L K J H G F O                                 ",
"  P F I U 6 Y t t Y 6 U I F P                                   ",
"    O T R E m W W m E R T O                                     ",
"      N Q B ! ~ ~ ! B Q N                                       ",
"        O ^ / ( ( / ^ O                     . j j .             ",
"          % ^ ) ) ^ %                     . j X X j .           ",
"            O O O O                   . + @ h _ _ h @ + .       ",
"              D D                     = - ; g z z g ; - =       ",
"                                  . = 4 5 6 7 8 8 7 6 5 4 = .   ",
"                                  + - 5 w e r t t r e w 5 - +   ",
"                                . @ ; 6 e i p a a p i e 6 ; @ . ",
"                              . j h g 7 r p d f f d p r 7 : # X ",
"                              j X $ l t t a f k k f a t t > $ o ",
"    O O     O O               j X x l t t a f k k f a t t z $ o ",
"  % , & * * & , %             . = M m b n p d f f d p n b v c X ",
"O & < 3 2 2 3 9 , O             D B V C Z A S a a S A Z C V B N ",
"O & < 0 q q 0 9 & O             O F G H J K L t t L K J H G F O ",
"  % y u 0 0 u y %                 P F I U 6 Y t t Y 6 U I F P   ",
"  O s y < < y s O                   O T ` E ' ] ] ' E ` T O     ",
"    O % & & % O                       N T B [ { { [ B T N       ",
"        O O                           } O |  ..... .| O }       "
};
