/* XPM */
static char *_febb24559e24363de4a1a155ee94408GkMLH8un4Xsbs8bI[] = {
/* columns rows colors chars-per-pixel */
"32 32 6 1 ",
"  c #20D6C7",
". c #63E9D1",
"X c #A6FCDB",
"o c #22BBD2",
"O c white",
"+ c #D5F2ED",
/* pixels */
"           .X            ..     ",
"           .XX....XX...XX       ",
"           X  ooo ooo.XX        ",
"          .          oooX.      ",
"         .                X.    ",
"..XXX....                  OO..X",
" ooooo..                  X.o   ",
"      o..                ..o    ",
"       oo.               .      ",
"        XO...XX.        ..      ",
"        X   ooo.XXX..OXX        ",
"      .X           oooo.+       ",
"    ..                 o.X      ",
".XXX                     ....XX.",
"oo..X                  XX.   ooo",
"  oooX              XX..        ",
"     .            .Xoo          ",
"      .          .              ",
"     XX..      ..               ",
"   .. ooo.XXX..                 ",
".X.      ooX.o                  ",
"            ..              XX..",
"             .            .Xoo  ",
"              X.       ..X      ",
"              .XX.XX..OOXo      ",
"            .XXooo  ooo.X.      ",
"           ..          ooo..    ",
"         XX               o.X.  ",
"...OXXX.XX                   XX.",
"  ooooooX..                 XXo ",
"        o..                X.o  ",
"          .X              ..    "
};
