/* XPM */
static char *a46b2f119c1f4e06a3c13d05a412ca98SUgtxbsigEBNazhn[] = {
/* columns rows colors chars-per-pixel */
"32 32 18 1 ",
"  c None",
". c #2E1C16",
"X c #765E44",
"o c #5F4932",
"O c #8D7255",
"+ c #9C8165",
"@ c #453524",
"# c #A08768",
"$ c #8F785B",
"% c #523F2B",
"& c #AF9877",
"* c #AD9877",
"= c #C0A987",
"- c #3D2F21",
"; c #A18D6E",
": c #22BBD2",
"> c #A6FCDB",
", c white",
/* pixels */
"                                ",
"                                ",
"                                ",
"            ....                ",
"           .XXXo.               ",
"          .oOO++o..             ",
"         .oXO++++Xo.            ",
"        .@X#O+OO++Xo.           ",
"        .@XX#OOO+++Xo.          ",
"       .@@oXXOO+++OXo.          ",
"       .@ooo$OO+OO++o%.         ",
"       .@ooXX&OOO+XXo%.         ",
"       .@%ooXX&##XXo%%.         ",
"      .@%%oooXXXXX%%X*X.        ",
"      .@%%%%ooooo%%%*+=o.       ",
"      .@@%%XXooooo%XOOOo.       ",
"      .@@@%oOXXoo%%oXOoo.       ",
"      .-@@@o;OOXXooXoo%@.       ",
"      .--@@oo;OOoooooo%@.       ",
"     :.---@%oo;Oo%%oo%%@.:      ",
"    :>.---@%%%ooo%%%%%@-.>:     ",
"     :.---@@%%%%%%@%%@@-.:      ",
"     :>.---@@@%%%@-@@@-.>:      ",
"      :>>---@@@@>>>--->>:       ",
"       ::>>>>>>>:::>>>::        ",
"         :::::::   :::          ",
"                                ",
"                                ",
"                                ",
"                                ",
"                                ",
"                                "
};
