/* XPM */
static char *_51e6a0afc4545afdb6fa2358f82c25cyn950dJiZ8kOP3tX[] = {
/* columns rows colors chars-per-pixel */
"32 32 4 1 ",
"  c #E4D2AA",
". c #E1C190",
"X c #D8B174",
"o c white",
/* pixels */
"   .............   ..........   ",
"  ..... ......    ..........    ",
" ............    ....  .....    ",
" ....  .. ..    .....  .....    ",
" ....  ....   ..............    ",
"..........   ...............    ",
"..........   ..............     ",
".........   ...............    .",
".........   ..............     .",
".........   .... ........      .",
"........   .............      ..",
"........   ............      ...",
".......    ..........       ....",
".....     .........        .....",
"..       ..  ....         ......",
"        ...  ..          .......",
"       .......        ......... ",
"     ... ....        .........  ",
"   .........       ..........   ",
" ..........      ............   ",
"..........      ...  . .....    ",
".........      ....  .......   .",
".........     .............   ..",
"........     .............   ...",
".......XX X ............    ....",
"...... XX  ...........     .. ..",
"....      ..... .....     ......",
"..       .... ...... XX .... ...",
".       ...........X XX.........",
"       ...........   ...........",
"      ............   ..XX...... ",
"    .............   ..XXX.....  "
};
