/* XPM */
static char *f1a1d2ea20be40cb83c5c8786050231eUK9XqreOQAaZPrKR[] = {
/* columns rows colors chars-per-pixel */
"16 16 3 1 ",
"  c #9FEBFF",
". c #D9F7FF",
"X c #75E3FF",
/* pixels */
"XXXXXXXXXXXXXXXX",
"XXXXXXXXXXXXXXXX",
"XXXXXXXXXXXXXXXX",
"XXXXX .X...X. XX",
"XXXXXXXXXXXXXXXX",
"XXXXXXXXXXXXXXXX",
"XXXXXXXXXXXXXXXX",
"XXXXXXXXXXXXXXXX",
"XXXXXXXXXXXXXXXX",
"XXXXXXXXXXXXXXXX",
"X . . XXXXXXXXXX",
"XXXXXXXXXXXXXXXX",
"XXXXXXXXXXXXXXXX",
"XXXXXXXXX . . XX",
"XXXXXXXXXXXXXXXX",
"XXXXXXXXXXXXXXXX"
};
